<?xml version="1.0" encoding="utf-8"?>
<!-- Generator: Adobe Illustrator 18.1.1, SVG Export Plug-In . SVG Version: 6.00 Build 0)  -->
<svg version="1.1" id="Layer_1" xmlns="http://www.w3.org/2000/svg" xmlns:xlink="http://www.w3.org/1999/xlink" x="0px" y="0px"
	 width="150px" height="53.3px" viewBox="0 0 150 53.3" enable-background="new 0 0 150 53.3" xml:space="preserve">
<g>
	<path d="M52.8,31.9c0.9,0.6,1.7,1,2.8,1c1.5,0,2-0.8,2-2.8v-8.9h3v9.2c0,3.6-1.7,5.2-4.7,5.2c-1.2,0-2.4-0.4-3-0.8V31.9z"/>
	<polygon points="72.5,21.2 74.9,30.7 77.3,21.2 80.2,21.2 76.5,35.3 73.8,35.3 71.3,26 68.8,35.3 66.1,35.3 62.4,21.2 65.4,21.2 
		67.7,30.7 70.2,21.2 	"/>
	<path d="M84.2,29.7v5.7h-1.8V21.2h5.2c2.9,0,4.7,1.5,4.7,4.2c0,2.8-1.9,4.2-4.7,4.2H84.2z M87.6,22.8h-3.4V28h3.4
		c1.9,0,2.9-1,2.9-2.6C90.6,23.8,89.5,22.8,87.6,22.8"/>
	<polygon points="95,21.2 96.8,21.2 96.8,33.7 104,33.7 104,35.3 95,35.3 	"/>
	<path d="M110.1,21.2l5.5,14.1h-1.8l-1.6-4.3h-5.8l-1.6,4.3h-1.8l5.5-14.1H110.1z M106.9,29.5h4.6l-2.3-6L106.9,29.5z"/>
	<polygon points="124.6,21.2 126.5,21.2 121.3,29.5 121.3,35.3 119.6,35.3 119.6,29.5 114.4,21.2 116.4,21.2 120.5,27.9 	"/>
	<polygon points="137,21.2 137,22.8 129.8,22.8 129.8,27.3 136.3,27.3 136.3,28.9 129.8,28.9 129.8,33.7 137,33.7 137,35.3 
		128,35.3 128,21.2 	"/>
	<path d="M141.4,29.3v6h-1.8V21.2h5.2c2.9,0,4.7,1.4,4.7,4.1c0,2.3-1.4,3.7-3.6,4l4.2,6.1h-2.1l-4.1-6H141.4z M141.4,27.8h3.3
		c1.9,0,2.9-0.9,2.9-2.5c0-1.6-1.1-2.5-2.9-2.5h-3.3V27.8z"/>
	<path d="M4.6,27.3c-0.1,0.4-0.3,0.4-0.4,0L4,26.6c0,0-0.3-1.1-0.8-2.4C3,23.8,2.9,23.3,2.6,23c-0.4-0.4-1.1-0.6-1.6-0.4
		c-0.5,0.2-0.9,0.7-1,1.2c-0.1,0.5,0.1,1,0.1,1.4c0.2,1.4,1.2,7.1,1.9,8.4c0.6,1.2,2,1.9,3.3,1.2c1.2-0.6,1.7-2.1,2.2-3.3
		c0.6-1.5,3.7-10,3.7-10c0.3-0.8,0.5-0.8,0.5,0.1c0,0-0.2,8.3-0.2,12.1c0,1.4,0.1,4,0.5,5.3c0.3,0.9,0.7,1.7,1.5,2.3
		c0.7,0.6,1.7,0.8,2.6,0.7c0.3,0,0.9-0.2,1.3-0.4c0.6-0.3,1.1-0.8,1.5-1.3c0.9-1.2,1.6-2.5,2.3-3.8c1.5-2.9,5.3-12,5.3-12
		c0.3-0.8,0.6-0.8,0.6,0.1c0,0-0.5,15.2-0.5,21c0,1.4,0.3,2.9,0.8,4.2c0.5,1.3,1.4,2.4,2.6,2.9c1.3,0.6,2.9,0.5,4.2-0.2
		c1-0.6,1.7-1.4,2.3-2.4c0.8-1.3,1.4-2.8,2-4.2c1.2-3,2.1-6.1,3.1-9.1c0.9-3.1,9.1-32.1,9.6-34.6c0.1-0.3,0.1-0.6,0.1-0.8
		c-0.1-0.6-0.4-1.1-1-1.3c-0.9-0.4-2,0-2.4,0.9c-0.4,0.9-11.6,27.9-11.6,27.9c-0.3,0.8-0.6,0.8-0.6-0.1c0,0,0-9.4,0.1-17.1
		c0-4.2-2.1-6.6-5-7c-1.4-0.2-2.7,0.1-3.8,0.9c-1.2,0.8-2.1,2-2.7,3.2c-0.9,1.7-6.3,17.6-6.3,17.6c-0.3,0.8-0.5,0.8-0.6-0.1
		c0,0-0.2-6.8-0.3-8.5c-0.2-2.5-0.8-6.6-4-6.7c-3-0.2-4.4,3.5-5.1,5.8c-0.5,1.5-3,9.8-3,9.8L4.6,27.3z"/>
</g>
</svg>
