<?xml version="1.0" encoding="utf-8"?>
<!-- Generator: Adobe Illustrator 18.1.1, SVG Export Plug-In . SVG Version: 6.00 Build 0)  -->
<svg version="1.1" id="Layer_1" xmlns="http://www.w3.org/2000/svg" xmlns:xlink="http://www.w3.org/1999/xlink" x="0px" y="0px"
	 width="617.1px" height="218.5px" viewBox="-224 374.6 617.1 218.5" enable-background="new -224 374.6 617.1 218.5"
	 xml:space="preserve">
<g>
	<path fill="#FFFFFF" d="M-6.9,506c3.7,2.5,7,4.1,11.5,4.1c6.2,0,8.2-3.3,8.2-11.5V462h12.3v37.8c0,14.8-7,21.4-19.3,21.4
		c-4.9,0-9.9-1.6-12.3-3.3V506H-6.9z"/>
	<polygon fill="#FFFFFF" points="74.1,462 84,501.1 93.8,462 105.8,462 90.6,520 79.5,520 69.2,481.7 58.9,520 47.8,520 32.6,462 
		44.9,462 54.4,501.1 64.7,462 	"/>
	<path fill="#FFFFFF" d="M122.2,497v23.4h-7.4V462h21.4c11.9,0,19.3,6.2,19.3,17.3c0,11.5-7.8,17.3-19.3,17.3h-14V497z M136.2,468.6
		h-14V490h14c7.8,0,11.9-4.1,11.9-10.7C148.5,472.7,144,468.6,136.2,468.6"/>
	<polygon fill="#FFFFFF" points="166.6,462 174,462 174,513.4 203.6,513.4 203.6,520 166.6,520 	"/>
	<path fill="#FFFFFF" d="M228.7,462l22.6,58h-7.4l-6.6-17.7h-23.8l-6.6,17.7h-7.4l22.6-58C222.1,462,228.7,462,228.7,462z
		 M215.5,496.1h18.9l-9.5-24.7L215.5,496.1z"/>
	<polygon fill="#FFFFFF" points="288.3,462 296.1,462 274.7,496.1 274.7,520 267.7,520 267.7,496.1 246.3,462 254.6,462 
		271.4,489.6 	"/>
	<polygon fill="#FFFFFF" points="339.3,462 339.3,468.6 309.7,468.6 309.7,487.1 336.4,487.1 336.4,493.7 309.7,493.7 309.7,513.4 
		339.3,513.4 339.3,520 302.3,520 302.3,462 	"/>
	<path fill="#FFFFFF" d="M357.3,495.3V520h-7.4v-58h21.4c11.9,0,19.3,5.8,19.3,16.9c0,9.5-5.8,15.2-14.8,16.4l17.3,25.1h-8.6
		l-16.9-24.7h-10.3V495.3z M357.3,489.1h13.6c7.8,0,11.9-3.7,11.9-10.3s-4.5-10.3-11.9-10.3h-13.6V489.1z"/>
	<path fill="#FFFFFF" d="M-205,487.1c-0.4,1.6-1.2,1.6-1.6,0l-0.8-2.9c0,0-1.2-4.5-3.3-9.9c-0.8-1.6-1.2-3.7-2.5-4.9
		c-1.6-1.6-4.5-2.5-6.6-1.6c-2.1,0.8-3.7,2.9-4.1,4.9s0.4,4.1,0.4,5.8c0.8,5.8,4.9,29.2,7.8,34.5c2.5,4.9,8.2,7.8,13.6,4.9
		c4.9-2.5,7-8.6,9-13.6c2.5-6.2,15.2-41.1,15.2-41.1c1.2-3.3,2.1-3.3,2.1,0.4c0,0-0.8,34.1-0.8,49.7c0,5.8,0.4,16.4,2.1,21.8
		c1.2,3.7,2.9,7,6.2,9.5c2.9,2.5,7,3.3,10.7,2.9c1.2,0,3.7-0.8,5.3-1.6c2.5-1.2,4.5-3.3,6.2-5.3c3.7-4.9,6.6-10.3,9.5-15.6
		c6.2-11.9,21.8-49.3,21.8-49.3c1.2-3.3,2.5-3.3,2.5,0.4c0,0-2.1,62.5-2.1,86.3c0,5.8,1.2,11.9,3.3,17.3c2.1,5.3,5.8,9.9,10.7,11.9
		c5.3,2.5,11.9,2.1,17.3-0.8c4.1-2.5,7-5.8,9.5-9.9c3.3-5.3,5.8-11.5,8.2-17.3c4.9-12.3,8.6-25.1,12.7-37.4
		c3.7-12.7,37.4-132,39.5-142.2c0.4-1.2,0.4-2.5,0.4-3.3c-0.4-2.5-1.6-4.5-4.1-5.3c-3.7-1.6-8.2,0-9.9,3.7s-47.7,114.7-47.7,114.7
		c-1.2,3.3-2.5,3.3-2.5-0.4c0,0,0-38.6,0.4-70.3c0-17.3-8.6-27.1-20.6-28.8c-5.8-0.8-11.1,0.4-15.6,3.7c-4.9,3.3-8.6,8.2-11.1,13.2
		c-3.7,7-25.9,72.3-25.9,72.3c-1.2,3.3-2.1,3.3-2.5-0.4c0,0-0.8-28-1.2-34.9c-0.8-10.3-3.3-27.1-16.4-27.5
		c-12.3-0.8-18.1,14.4-21,23.8c-2.1,6.2-12.3,40.3-12.3,40.3L-205,487.1z"/>
</g>
</svg>
